<?xml version="1.0" standalone="no"?>
<!DOCTYPE svg PUBLIC "-//W3C//DTD SVG 20010904//EN"
 "http://www.w3.org/TR/2001/REC-SVG-20010904/DTD/svg10.dtd">
<svg version="1.0" xmlns="http://www.w3.org/2000/svg"
 width="200.000000pt" height="200.000000pt" viewBox="0 0 200.000000 200.000000"
 preserveAspectRatio="xMidYMid meet">
<metadata>
Created by potrace 1.15, written by Peter Selinger 2001-2017
</metadata>
<g transform="translate(0.000000,200.000000) scale(0.100000,-0.100000)"
fill="#000000" stroke="none">
<path d="M986 1583 c-3 -4 -44 -7 -89 -8 -74 -1 -87 -4 -133 -33 -28 -18 -62
-32 -75 -32 -41 0 -51 -13 -47 -66 l3 -49 -34 0 c-43 0 -48 -15 -18 -51 14
-17 27 -49 30 -77 4 -26 16 -64 26 -86 11 -21 18 -41 14 -44 -3 -3 -2 -18 1
-32 5 -21 12 -26 34 -23 29 2 96 -26 124 -55 19 -18 53 -23 62 -8 4 5 25 12
49 16 56 10 129 47 158 83 14 15 32 31 40 34 11 4 18 24 22 59 4 29 11 57 17
63 13 13 13 53 -1 58 -6 2 -12 35 -13 74 -3 82 -10 96 -41 92 -28 -4 -52 16
-70 59 -13 31 -41 44 -59 26z"/>
<path d="M260 1081 c-85 -18 -125 -61 -124 -134 2 -51 37 -85 120 -117 77 -28
104 -46 104 -70 0 -30 -43 -52 -100 -52 -61 0 -78 12 -82 60 -2 30 -7 38 -26
40 -35 5 -52 -15 -52 -62 0 -32 6 -48 23 -64 63 -60 219 -56 289 7 26 23 31
35 32 73 1 62 -24 88 -125 129 -44 17 -84 40 -90 51 -23 42 15 78 82 78 48 0
69 -16 69 -54 0 -59 51 -76 78 -26 30 58 -11 123 -90 139 -53 12 -57 12 -108
2z"/>
<path d="M538 874 c-80 -43 -81 -194 -2 -224 57 -22 121 2 150 56 22 40 31 43
40 10 15 -63 103 -93 178 -62 34 14 40 14 59 1 27 -19 50 -19 85 -1 24 12 30
12 47 0 25 -19 65 -18 93 2 21 15 25 15 41 0 10 -9 22 -16 28 -16 7 0 6 -15
-4 -41 -34 -100 -25 -173 22 -185 62 -15 111 50 122 163 5 50 9 57 36 68 27
11 51 8 95 -11 1 0 -5 -20 -13 -44 -21 -61 -20 -143 3 -163 29 -26 67 -21 95
13 22 26 57 138 57 182 0 20 53 38 75 26 58 -33 180 50 159 107 -9 23 -27 18
-59 -15 -32 -34 -62 -41 -49 -12 4 9 9 40 12 69 3 42 0 55 -17 72 -25 25 -68
27 -99 5 -20 -14 -22 -14 -22 1 0 12 -8 16 -32 13 l-33 -3 -5 -69 c-4 -61 -8
-71 -32 -89 -33 -25 -42 -19 -28 17 36 96 -31 178 -111 136 -13 -7 -19 -7 -19
0 0 14 -53 13 -68 -2 -7 -7 -12 -38 -12 -70 0 -46 -4 -61 -22 -78 -42 -39 -44
-28 -22 103 6 33 4 37 -15 37 -12 0 -29 5 -40 11 -22 15 -79 4 -107 -19 -30
-25 -56 -68 -63 -104 -7 -32 -34 -58 -47 -45 -4 4 -2 41 5 82 14 83 11 95 -24
95 -30 0 -37 -10 -55 -90 -14 -60 -18 -67 -53 -83 -35 -18 -39 -18 -63 -2 -22
14 -25 22 -21 52 10 61 47 87 47 33 0 -23 4 -30 20 -30 47 0 62 87 20 110 -47
25 -129 -5 -152 -55 -12 -28 -38 -34 -38 -9 0 8 -13 29 -29 45 -34 33 -87 39
-133 13z"/>
</g>
</svg>
